<svg width="83" height="60" viewBox="0 0 83 60" fill="none" xmlns="http://www.w3.org/2000/svg">
<path d="M1 0H83H1ZM83 60H5.81412C2.60307 60 0 57.3969 0 54.1859H2C2 56.2924 3.70764 58 5.81412 58H83V60ZM5.81412 60C2.60307 60 0 57.3969 0 54.1859V0H2V54.1859C2 56.2924 3.70764 58 5.81412 58V60ZM83 0V59V0Z" fill="black"/>
<path d="M12.344 23H9.704V5.84H12.344V23ZM18.3909 23H15.7509V5.84H18.7749L26.7429 19.04H26.7909V5.84H29.4549V23H26.4309L18.4389 9.8H18.3909V23ZM35.5003 23H32.8603V5.84H44.7643V8.12H35.5003V13.28H42.9883V15.56H35.5003V23ZM53.8271 23.336C48.6911 23.336 45.4031 19.568 45.4031 14.408C45.4031 9.248 48.6911 5.504 53.8271 5.504C58.9631 5.504 62.2511 9.248 62.2511 14.408C62.2511 19.568 58.9631 23.336 53.8271 23.336ZM53.8271 21.056C57.8831 21.056 59.4911 17.936 59.4911 14.408C59.4911 10.88 57.8831 7.784 53.8271 7.784C49.7711 7.784 48.1631 10.88 48.1631 14.408C48.1631 17.936 49.7711 21.056 53.8271 21.056Z" fill="black"/>
</svg>
