<svg width="66" height="49" viewBox="0 0 66 49" fill="none" xmlns="http://www.w3.org/2000/svg">
<path fill-rule="evenodd" clip-rule="evenodd" d="M30.5698 10.1496C29.7446 10.2959 28.3422 10.654 27.9378 10.8215C27.7986 10.8792 27.5936 10.9636 27.4823 11.0093C25.4733 11.8326 23.4982 13.1149 21.6616 14.7883C21.3554 15.0674 17.0503 19.3401 12.0946 24.2833C7.13902 29.2265 3.05108 33.2709 3.01019 33.2709C2.96929 33.2709 2.92414 30.7769 2.90977 27.7286L2.88355 22.1863L1.52485 22.158C0.505773 22.1367 0.145497 22.162 0.0838488 22.2592C0.0385993 22.3305 0.000942091 25.967 3.10275e-05 30.3403C-0.00108249 36.3916 0.0275655 38.321 0.119988 38.4134C0.21241 38.5058 2.14174 38.5344 8.19302 38.5333C12.5663 38.5324 16.2029 38.4948 16.2742 38.4495C16.3713 38.3879 16.3966 38.0276 16.3754 37.0085L16.347 35.6498L10.8554 35.6236C6.46554 35.6027 5.36366 35.5714 5.36366 35.4675C5.36366 35.2839 23.6753 17.0389 24.5972 16.3041C25.8697 15.2898 27.7655 14.0374 28.0284 14.0374C28.069 14.0374 28.2816 13.9509 28.5008 13.8452C29.7854 13.226 31.2658 12.924 33.0169 12.9239C34.4402 12.9238 34.9627 12.994 36.188 13.3498C36.8465 13.541 37.0877 13.6355 38.2354 14.1516C38.7323 14.375 40.8368 15.7806 41.5025 16.3338C42.1004 16.8305 60.7361 35.4229 60.7361 35.5226C60.7361 35.5647 58.2583 35.5992 55.2299 35.5992C50.3024 35.5992 49.7173 35.616 49.6623 35.7593C49.5445 36.0664 49.5947 38.2857 49.7223 38.4134C49.8148 38.5058 51.7383 38.5349 57.7618 38.5349C62.1166 38.5349 65.7518 38.5072 65.8399 38.4734C65.984 38.4181 66 37.606 66 30.3264V22.2408L65.7722 22.1842C65.647 22.153 65.0206 22.1408 64.3803 22.157L63.2162 22.1863L63.1909 27.6021C63.177 30.5808 63.1433 33.0773 63.1161 33.15C63.083 33.2379 63.0131 33.2523 62.9072 33.1931C62.8198 33.1441 58.5715 28.9351 53.4666 23.8397C48.3618 18.7442 43.8434 14.3032 43.4259 13.9707C41.522 12.4544 39.0547 11.0372 37.7079 10.6865C37.5401 10.6427 37.2205 10.5561 36.9978 10.4938C36.7751 10.4316 36.1374 10.2931 35.5806 10.1861C34.3752 9.95438 31.7769 9.93545 30.5698 10.1496Z" fill="black"/>
</svg>
