<svg width="65" height="71" viewBox="0 0 65 71" fill="none" xmlns="http://www.w3.org/2000/svg">
<path fill-rule="evenodd" clip-rule="evenodd" d="M2.22809 16.1453C2.04123 19.9687 1.61031 34.2752 1.20441 50.1386L1 58.1337L3.0623 58.3374C9.74156 58.9975 63.2916 58.8298 63.9747 58.1467C64.0777 58.044 63.8564 48.4052 63.4833 36.7278C63.1103 25.05 62.8058 14.7642 62.8067 13.8705L62.8084 12.2456H32.6134H2.41885L2.22809 16.1453ZM3.20367 16.7953C3.1 18.7614 2.86992 25.854 2.69216 32.5567C2.51439 39.2593 2.28366 47.5404 2.17934 50.9588L1.98955 57.174L4.69467 57.3687C13.1103 57.9741 62.344 57.8279 62.9764 57.1955C63.0586 57.1129 62.837 48.1354 62.4837 37.2454C62.1308 26.3555 61.8399 16.4947 61.8377 15.3329L61.8334 13.2205H32.6125H3.39151L3.20367 16.7953Z" fill="black" stroke="black" stroke-width="1.62489"/>
<circle cx="23" cy="29" r="4" fill="black"/>
</svg>
